<svg width="24" height="24" viewBox="0 0 24 24" fill="none" xmlns="http://www.w3.org/2000/svg">
<path d="M8.29289 12.2929C7.90237 12.6834 7.90237 13.3166 8.29289 13.7071C8.68342 14.0976 9.31658 14.0976 9.70711 13.7071L8.29289 12.2929ZM12 10L12.7071 9.29289C12.3166 8.90237 11.6834 8.90237 11.2929 9.29289L12 10ZM14.2929 13.7071C14.6834 14.0976 15.3166 14.0976 15.7071 13.7071C16.0976 13.3166 16.0976 12.6834 15.7071 12.2929L14.2929 13.7071ZM9.70711 13.7071L12.7071 10.7071L11.2929 9.29289L8.29289 12.2929L9.70711 13.7071ZM11.2929 10.7071L14.2929 13.7071L15.7071 12.2929L12.7071 9.29289L11.2929 10.7071Z" fill="#333333"/>
</svg>
