<svg width="20" height="20" viewBox="0 0 20 20" fill="none" xmlns="http://www.w3.org/2000/svg">
<path d="M9.04048 5.95958C8.64996 5.56906 8.01679 5.56906 7.62627 5.95958C7.23574 6.3501 7.23574 6.98327 7.62627 7.37379L9.04048 5.95958ZM11.6667 10L12.3738 10.7071C12.5614 10.5196 12.6667 10.2652 12.6667 10C12.6667 9.7348 12.5614 9.48045 12.3738 9.29291L11.6667 10ZM7.62627 12.6262C7.23574 13.0168 7.23574 13.6499 7.62627 14.0405C8.01679 14.431 8.64996 14.431 9.04048 14.0405L7.62627 12.6262ZM7.62627 7.37379L10.9596 10.7071L12.3738 9.29291L9.04048 5.95958L7.62627 7.37379ZM10.9596 9.29291L7.62627 12.6262L9.04048 14.0405L12.3738 10.7071L10.9596 9.29291Z" fill="white"/>
</svg>
