<svg width="32" height="32" viewBox="0 0 32 32" fill="none" xmlns="http://www.w3.org/2000/svg">
<path d="M14.6667 22.6666H26.6667" stroke="white" stroke-width="2" stroke-linecap="round" stroke-linejoin="round"/>
<path d="M11.4349 20.6402C11.7884 20.2159 11.7311 19.5853 11.3068 19.2318C10.8826 18.8782 10.252 18.9355 9.89843 19.3598L11.4349 20.6402ZM7.33331 24L6.77861 24.8321C7.20383 25.1155 7.77437 25.0328 8.10153 24.6402L7.33331 24ZM5.88801 21.8346C5.42848 21.5283 4.80762 21.6524 4.50126 22.112C4.19491 22.5715 4.31908 23.1924 4.77861 23.4987L5.88801 21.8346ZM9.89843 19.3598L6.56509 23.3598L8.10153 24.6402L11.4349 20.6402L9.89843 19.3598ZM7.88801 23.1679L5.88801 21.8346L4.77861 23.4987L6.77861 24.8321L7.88801 23.1679Z" fill="white"/>
<path d="M14.6667 16H26.6667" stroke="white" stroke-width="2" stroke-linecap="round" stroke-linejoin="round"/>
<path d="M11.4349 13.9734C11.7884 13.5492 11.7311 12.9186 11.3068 12.565C10.8826 12.2115 10.252 12.2688 9.89843 12.6931L11.4349 13.9734ZM7.33331 17.3333L6.77864 18.1653C7.20386 18.4488 7.77438 18.366 8.10153 17.9734L7.33331 17.3333ZM5.88799 15.1679C5.42845 14.8616 4.80758 14.9858 4.50124 15.4453C4.19491 15.9049 4.3191 16.5257 4.77864 16.8321L5.88799 15.1679ZM9.89843 12.6931L6.56509 16.6931L8.10153 17.9734L11.4349 13.9734L9.89843 12.6931ZM7.88799 16.5012L5.88799 15.1679L4.77864 16.8321L6.77864 18.1653L7.88799 16.5012Z" fill="white"/>
<path d="M14.6667 9.33337H26.6667" stroke="white" stroke-width="2" stroke-linecap="round" stroke-linejoin="round"/>
<path d="M11.4349 7.30681C11.7884 6.88253 11.7311 6.25197 11.3068 5.8984C10.8826 5.54484 10.252 5.60216 9.89843 6.02644L11.4349 7.30681ZM7.33331 10.6666L6.77861 11.4987C7.20383 11.7822 7.77437 11.6994 8.10153 11.3068L7.33331 10.6666ZM5.88801 8.50124C5.42848 8.19489 4.80762 8.31906 4.50126 8.77859C4.19491 9.23812 4.31908 9.85899 4.77861 10.1653L5.88801 8.50124ZM9.89843 6.02644L6.56509 10.0264L8.10153 11.3068L11.4349 7.30681L9.89843 6.02644ZM7.88801 9.83458L5.88801 8.50124L4.77861 10.1653L6.77861 11.4987L7.88801 9.83458Z" fill="white"/>
</svg>
