<svg width="32" height="32" viewBox="0 0 32 32" fill="none" xmlns="http://www.w3.org/2000/svg">
<path d="M16 21.3333C18.9455 21.3333 21.3334 18.9455 21.3334 16C21.3334 13.0544 18.9455 10.6666 16 10.6666C13.0545 10.6666 10.6667 13.0544 10.6667 16C10.6667 18.9455 13.0545 21.3333 16 21.3333Z" stroke="white" stroke-width="2" stroke-linecap="round" stroke-linejoin="round"/>
<path d="M25.4685 10.4349L26.3344 9.93473L26.3344 9.93472L25.4685 10.4349ZM25.5562 10.5867L24.6902 11.0869L24.6902 11.0869L25.5562 10.5867ZM26.5689 11.5832L27.055 10.7093L27.055 10.7093L26.5689 11.5832ZM28.6371 12.7338L28.1509 13.6076L28.1509 13.6076L28.6371 12.7338ZM29.3222 13.8959L28.3222 13.8982V13.8982L29.3222 13.8959ZM29.3317 18.0983L28.3317 18.1006V18.1006L29.3317 18.0983ZM28.6447 19.2676L28.16 18.3929L28.6447 19.2676ZM26.5715 20.4165L27.0562 21.2912L26.5715 20.4165ZM25.555 21.4151L24.6891 20.9149L24.6891 20.9149L25.555 21.4151ZM25.4685 21.5649L26.3344 22.0651L26.3344 22.0651L25.4685 21.5649ZM25.1113 22.9436L24.1114 22.9604V22.9604L25.1113 22.9436ZM25.1512 25.3181L24.1514 25.335L25.1512 25.3181ZM24.4874 26.4937L23.9854 25.6289L23.9854 25.6289L24.4874 26.4937ZM20.8501 28.6048L21.352 29.4697L20.8501 28.6048ZM19.4945 28.5948L20.0092 27.7374H20.0092L19.4945 28.5948ZM17.4597 27.3732L16.945 28.2306L17.4597 27.3732ZM14.5416 27.3716L15.0554 28.2296V28.2296L14.5416 27.3716ZM12.5162 28.5844L12.0025 27.7264H12.0025L12.5162 28.5844ZM11.1655 28.5957L11.6648 27.7293L11.1655 28.5957ZM7.51667 26.493L8.01596 25.6266H8.01596L7.51667 26.493ZM6.84924 25.3153L7.8491 25.3322V25.3322L6.84924 25.3153ZM6.88915 22.9511L5.8893 22.9342L6.88915 22.9511ZM6.53722 21.5814L7.4051 21.0846L6.53722 21.5814ZM6.44452 21.4194L5.57664 21.9162L5.57664 21.9162L6.44452 21.4194ZM5.42656 20.4138L4.94041 21.2877H4.94041L5.42656 20.4138ZM3.36333 19.266L2.87718 20.1399H2.87718L3.36333 19.266ZM2.67819 18.1039L1.67819 18.1062L2.67819 18.1039ZM2.66864 13.9015L3.66864 13.8992L2.66864 13.9015ZM3.35569 12.7322L3.8404 13.6069L3.8404 13.6069L3.35569 12.7322ZM5.42887 11.5833L4.94415 10.7086L4.94415 10.7086L5.42887 11.5833ZM6.4454 10.5847L5.57949 10.0845L5.57949 10.0845L6.4454 10.5847ZM6.53192 10.4349L7.39783 10.9351L7.39783 10.9351L6.53192 10.4349ZM6.8891 9.05621L7.88896 9.03939V9.03939L6.8891 9.05621ZM6.84915 6.68166L5.84929 6.69849L6.84915 6.68166ZM7.513 5.50605L8.01497 6.37094L8.01497 6.37094L7.513 5.50605ZM11.1503 3.395L11.6523 4.25988V4.25988L11.1503 3.395ZM12.5059 3.40503L11.9912 4.26239V4.26239L12.5059 3.40503ZM14.5406 4.62659L14.0259 5.48395L14.5406 4.62659ZM17.4587 4.62818L16.945 3.77022L16.945 3.77022L17.4587 4.62818ZM19.4842 3.4154L18.9705 2.55744V2.55744L19.4842 3.4154ZM20.8349 3.40409L21.3341 2.53765V2.53765L20.8349 3.40409ZM24.4837 5.50677L24.983 4.64033L24.4837 5.50677ZM25.1512 6.68445L24.1513 6.66762V6.66762L25.1512 6.68445ZM25.1113 9.05621L24.1114 9.03939V9.03939L25.1113 9.05621ZM24.6025 10.9351L24.6902 11.0869L26.4221 10.0865L26.3344 9.93473L24.6025 10.9351ZM26.0827 12.4571L28.1509 13.6076L29.1232 11.8599L27.055 10.7093L26.0827 12.4571ZM28.3222 13.8982L28.3317 18.1006L30.3317 18.0961L30.3222 13.8936L28.3222 13.8982ZM28.16 18.3929L26.0868 19.5418L27.0562 21.2912L29.1294 20.1423L28.16 18.3929ZM24.6891 20.9149L24.6025 21.0647L26.3344 22.0651L26.4209 21.9153L24.6891 20.9149ZM24.1114 22.9604L24.1514 25.335L26.1511 25.3013L26.1111 22.9268L24.1114 22.9604ZM23.9854 25.6289L20.3481 27.7399L21.352 29.4697L24.9893 27.3586L23.9854 25.6289ZM20.0092 27.7374L17.9744 26.5158L16.945 28.2306L18.9798 29.4521L20.0092 27.7374ZM16.0872 25.9928H15.9116V27.9928H16.0872V25.9928ZM14.0279 26.5137L12.0025 27.7264L13.0299 29.4423L15.0554 28.2296L14.0279 26.5137ZM11.6648 27.7293L8.01596 25.6266L7.01739 27.3595L10.6662 29.4621L11.6648 27.7293ZM7.8491 25.3322L7.88901 22.968L5.8893 22.9342L5.84938 25.2984L7.8491 25.3322ZM7.4051 21.0846L7.3124 20.9227L5.57664 21.9162L5.66934 22.0782L7.4051 21.0846ZM5.9127 19.5399L3.84947 18.3921L2.87718 20.1399L4.94041 21.2877L5.9127 19.5399ZM3.67819 18.1016L3.66864 13.8992L1.66865 13.9037L1.67819 18.1062L3.67819 18.1016ZM3.8404 13.6069L5.91358 12.458L4.94415 10.7086L2.87097 11.8575L3.8404 13.6069ZM7.31131 11.0849L7.39783 10.9351L5.666 9.93472L5.57949 10.0845L7.31131 11.0849ZM7.88896 9.03939L7.84901 6.66484L5.84929 6.69849L5.88924 9.07303L7.88896 9.03939ZM8.01497 6.37094L11.6523 4.25988L10.6483 2.53011L7.01103 4.64117L8.01497 6.37094ZM11.9912 4.26239L14.0259 5.48395L15.0554 3.76923L13.0206 2.54767L11.9912 4.26239ZM15.9132 6.00696H16.0888V4.00696H15.9132V6.00696ZM17.9725 5.48614L19.9979 4.27336L18.9705 2.55744L16.945 3.77022L17.9725 5.48614ZM20.3356 4.27053L23.9845 6.3732L24.983 4.64033L21.3341 2.53765L20.3356 4.27053ZM24.1513 6.66762L24.1114 9.03939L26.1111 9.07303L26.151 6.70127L24.1513 6.66762ZM23.9845 6.3732C24.0895 6.43371 24.1534 6.54645 24.1513 6.66762L26.151 6.70127C26.1653 5.85304 25.7181 5.0639 24.983 4.64033L23.9845 6.3732ZM19.9979 4.27336C20.1016 4.21125 20.2308 4.21017 20.3356 4.27053L21.3341 2.53765C20.601 2.11515 19.6965 2.12272 18.9705 2.55744L19.9979 4.27336ZM16.0888 6.00696C16.7523 6.00696 17.4033 5.82696 17.9725 5.48614L16.945 3.77022C16.6863 3.92514 16.3904 4.00696 16.0888 4.00696V6.00696ZM14.0259 5.48395C14.596 5.82617 15.2483 6.00696 15.9132 6.00696V4.00696C15.611 4.00696 15.3145 3.92478 15.0554 3.76923L14.0259 5.48395ZM11.6523 4.25988C11.7573 4.19894 11.8871 4.19991 11.9912 4.26239L13.0206 2.54767C12.292 2.11028 11.3833 2.10355 10.6483 2.53011L11.6523 4.25988ZM7.84901 6.66484C7.84697 6.54404 7.91047 6.43159 8.01497 6.37094L7.01103 4.64117C6.27955 5.06571 5.83506 5.85285 5.84929 6.69849L7.84901 6.66484ZM7.39783 10.9351C7.73038 10.3594 7.90014 9.70413 7.88896 9.03939L5.88924 9.07303C5.89433 9.37519 5.81716 9.67304 5.666 9.93473L7.39783 10.9351ZM5.91358 12.458C6.49542 12.1355 6.97858 11.6609 7.31131 11.0849L5.57949 10.0845C5.42824 10.3463 5.20863 10.5621 4.94415 10.7086L5.91358 12.458ZM3.66864 13.8992C3.66837 13.7777 3.73417 13.6657 3.8404 13.6069L2.87097 11.8575C2.12735 12.2696 1.66672 13.0536 1.66865 13.9037L3.66864 13.8992ZM3.84947 18.3922C3.74398 18.3335 3.67846 18.2223 3.67819 18.1016L1.67819 18.1062C1.68011 18.9512 2.13874 19.7291 2.87718 20.1399L3.84947 18.3922ZM7.3124 20.9227C6.98052 20.3428 6.49652 19.8647 5.9127 19.5399L4.94041 21.2877C5.20578 21.4353 5.42578 21.6527 5.57664 21.9162L7.3124 20.9227ZM7.88901 22.968C7.90015 22.3081 7.73297 21.6574 7.4051 21.0846L5.66934 22.0782C5.81837 22.3385 5.89436 22.6343 5.8893 22.9342L7.88901 22.968ZM8.01596 25.6266C7.91094 25.5661 7.84705 25.4534 7.8491 25.3322L5.84938 25.2984C5.83506 26.1467 6.2823 26.9359 7.01739 27.3595L8.01596 25.6266ZM12.0025 27.7264C11.8988 27.7885 11.7695 27.7896 11.6648 27.7293L10.6662 29.4621C11.3994 29.8846 12.3039 29.8771 13.0299 29.4423L12.0025 27.7264ZM15.9116 25.9928C15.2481 25.9928 14.5971 26.1728 14.0279 26.5137L15.0554 28.2296C15.3141 28.0746 15.61 27.9928 15.9116 27.9928V25.9928ZM17.9744 26.5158C17.4044 26.1736 16.752 25.9928 16.0872 25.9928V27.9928C16.3894 27.9928 16.6859 28.075 16.945 28.2306L17.9744 26.5158ZM20.3481 27.7399C20.2431 27.8008 20.1133 27.7999 20.0092 27.7374L18.9798 29.4521C19.7083 29.8895 20.6171 29.8962 21.352 29.4697L20.3481 27.7399ZM24.1514 25.335C24.1534 25.4558 24.0899 25.5682 23.9854 25.6289L24.9893 27.3586C25.7208 26.9341 26.1653 26.1469 26.1511 25.3013L24.1514 25.335ZM24.6025 21.0647C24.27 21.6404 24.1002 22.2957 24.1114 22.9604L26.1111 22.9268C26.1061 22.6246 26.1832 22.3267 26.3344 22.0651L24.6025 21.0647ZM26.0868 19.5418C25.505 19.8643 25.0218 20.3389 24.6891 20.9149L26.4209 21.9153C26.5721 21.6535 26.7918 21.4377 27.0562 21.2912L26.0868 19.5418ZM28.3317 18.1006C28.332 18.2221 28.2662 18.3341 28.16 18.3929L29.1294 20.1423C29.873 19.7302 30.3337 18.9462 30.3317 18.0961L28.3317 18.1006ZM28.1509 13.6076C28.2564 13.6663 28.3219 13.7775 28.3222 13.8982L30.3222 13.8936C30.3203 13.0486 29.8616 12.2707 29.1232 11.8599L28.1509 13.6076ZM24.6902 11.0869C25.0219 11.6612 25.5032 12.1347 26.0827 12.4571L27.055 10.7093C26.7916 10.5628 26.5728 10.3476 26.4221 10.0865L24.6902 11.0869ZM26.3344 9.93472C26.1832 9.67304 26.1061 9.37519 26.1111 9.07303L24.1114 9.03939C24.1002 9.70413 24.27 10.3594 24.6025 10.9351L26.3344 9.93472Z" fill="white"/>
</svg>
