<svg width="32" height="32" viewBox="0 0 32 32" fill="none" xmlns="http://www.w3.org/2000/svg">
<path d="M13.0364 17.5494C12.6459 17.9399 12.6459 18.573 13.0364 18.9636C13.4269 19.3541 14.0601 19.3541 14.4506 18.9636L13.0364 17.5494ZM20.9122 12.502C21.3027 12.1115 21.3027 11.4783 20.9122 11.0878C20.5217 10.6973 19.8885 10.6973 19.498 11.0878L20.9122 12.502ZM14.4506 18.9636L20.9122 12.502L19.498 11.0878L13.0364 17.5494L14.4506 18.9636Z" fill="white"/>
<path d="M18.3068 27.6901L17.4124 28.1373L18.3068 27.6901ZM20.7738 27.4859L19.818 27.1918L20.7738 27.4859ZM13.2437 18.1601L12.7965 19.0546L13.2437 18.1601ZM13.84 18.7564L14.7344 18.3092L13.84 18.7564ZM4.51426 11.2264L4.80834 12.1821L4.51426 11.2264ZM4.31009 13.6933L3.86287 14.5877L4.31009 13.6933ZM25.5931 4.74058L25.8872 5.69636L25.5931 4.74058ZM27.2596 6.40706L28.2153 6.70115L27.2596 6.40706ZM25.299 3.7848L4.22017 10.2706L4.80834 12.1821L25.8872 5.69636L25.299 3.7848ZM3.86287 14.5877L12.7965 19.0546L13.6909 17.2657L4.7573 12.7989L3.86287 14.5877ZM12.9456 19.2036L17.4124 28.1373L19.2013 27.2428L14.7344 18.3092L12.9456 19.2036ZM21.7296 27.78L28.2153 6.70115L26.3038 6.11298L19.818 27.1918L21.7296 27.78ZM17.4124 28.1373C18.3538 30.0201 21.1105 29.7919 21.7296 27.78L19.818 27.1918C19.7296 27.4792 19.3357 27.5118 19.2013 27.2428L17.4124 28.1373ZM12.7965 19.0546C12.861 19.0868 12.9133 19.1391 12.9456 19.2036L14.7344 18.3092C14.5087 17.8576 14.1425 17.4915 13.6909 17.2657L12.7965 19.0546ZM4.22017 10.2706C2.20821 10.8897 1.98007 13.6463 3.86287 14.5877L4.7573 12.7989C4.48833 12.6644 4.52092 12.2706 4.80834 12.1821L4.22017 10.2706ZM25.8872 5.69636C26.1429 5.61766 26.3825 5.85722 26.3038 6.11298L28.2153 6.70115C28.7662 4.91083 27.0893 3.23393 25.299 3.7848L25.8872 5.69636Z" fill="white"/>
</svg>
